<?xml version="1.0" encoding="utf-8"?>
<!-- Generator: Adobe Illustrator 16.0.0, SVG Export Plug-In . SVG Version: 6.00 Build 0)  -->
<!DOCTYPE svg PUBLIC "-//W3C//DTD SVG 1.1//EN" "http://www.w3.org/Graphics/SVG/1.1/DTD/svg11.dtd">
<svg version="1.1" id="Layer_1" xmlns="http://www.w3.org/2000/svg" xmlns:xlink="http://www.w3.org/1999/xlink" x="0px" y="0px"
	 width="160px" height="94px" viewBox="0 0 160 94" enable-background="new 0 0 160 94" xml:space="preserve">
<g>
	<g>
		<path fill="#808080" d="M20.59,79.357c-1.119,1.398-2.307,2.914-3.565,4.543s-2.914,2.586-4.962,2.866
			c-1.77,0-2.888-0.653-3.355-1.958c-0.465-1.304-0.559-2.701-0.279-4.193c1.677-10.157,3.68-20.316,6.011-30.476
			c2.328-10.157,5.452-20.362,9.366-30.615c0.092-0.371,0.35-1,0.769-1.887c0.419-0.884,0.979-1.793,1.678-2.726
			c0.699-0.93,1.56-1.769,2.586-2.516c1.024-0.745,2.188-1.118,3.495-1.118c1.024,0,1.839,0.258,2.446,0.769
			c0.605,0.514,1.049,1.073,1.328,1.678c0.28,0.607,0.465,1.212,0.559,1.817c0.092,0.607,0.14,1.048,0.14,1.328
			c0,2.237-0.419,4.403-1.258,6.5c-0.839,2.097-1.887,4.008-3.146,5.731c-1.258,1.726-2.586,3.239-3.984,4.543
			c-1.398,1.306-2.704,2.331-3.915,3.075c-1.026,2.984-1.841,5.476-2.446,7.479c-0.607,2.005-1.143,3.659-1.607,4.963
			c-1.027,3.076-2.121,6.245-3.286,9.506c-1.166,3.263-2.261,6.43-3.285,9.506c-1.026,3.076-1.887,5.896-2.586,8.458
			c-0.699,2.564-1.048,4.592-1.048,6.081c0,0.653,0.118,1.213,0.349,1.678c0.234,0.468,0.723,0.699,1.468,0.699
			c0.745,0,1.443-0.231,2.097-0.699c0.651-0.465,1.28-1.049,1.887-1.747c0.605-0.699,1.188-1.42,1.748-2.167
			c0.559-0.745,1.07-1.444,1.538-2.097c0.559-0.745,1.328-1.887,2.307-3.425c0.979-1.538,1.957-3.122,2.936-4.753
			c0.979-1.629,1.839-3.051,2.586-4.264c0.745-1.21,1.21-1.817,1.398-1.817c0.28-0.092,0.489,0.024,0.629,0.35
			c0.14,0.328,0.116,0.583-0.07,0.769c-1.306,2.424-2.634,4.823-3.984,7.199C23.782,74.813,22.268,77.12,20.59,79.357z
			 M26.461,30.568c-0.188,0.374-0.303,0.699-0.349,0.979c-0.048,0.28-0.164,0.607-0.35,0.979c1.21-1.21,2.329-2.726,3.355-4.543
			c1.024-1.817,1.839-3.565,2.446-5.243c0.605-1.677,0.979-3.075,1.119-4.194c0.14-1.118-0.024-1.677-0.489-1.677
			c-1.119,1.585-2.121,3.613-3.006,6.081C28.301,25.42,27.392,27.96,26.461,30.568z"/>
		<path fill="#808080" d="M46.73,67.614c0.186,0.094,0.28,0.328,0.28,0.699c0,0.094-0.304,0.56-0.909,1.398
			c-0.607,0.839-1.328,1.771-2.167,2.796c-0.839,1.027-1.656,2.051-2.446,3.076c-0.793,1.026-1.376,1.771-1.748,2.237
			c-2.516,3.075-4.428,5.36-5.731,6.85c-1.306,1.49-2.656,2.237-4.054,2.237c-1.024,0-1.793-0.258-2.307-0.77
			c-0.511-0.513-0.885-1.118-1.118-1.817c-0.231-0.698-0.372-1.419-0.419-2.166c-0.046-0.745-0.07-1.351-0.07-1.818
			c0-3.261,0.233-6.382,0.699-9.366c0.468-2.981,1.167-6.011,2.097-9.087c0.839-2.796,1.56-5.218,2.167-7.269
			c0.605-2.049,1.119-3.517,1.538-4.404c0.419-0.884,0.838-1.49,1.258-1.817c0.419-0.325,0.861-0.489,1.328-0.489
			c2.143,0.374,3.285,0.887,3.425,1.538c0.14,0.653-0.118,2.097-0.769,4.333c-0.653,2.237-1.422,4.801-2.307,7.689
			c-0.887,2.89-1.656,5.196-2.307,6.919c-0.653,1.726-1.306,3.473-1.957,5.243c-0.653,1.771-1.188,3.473-1.608,5.103
			c-0.419,1.631-0.629,3.053-0.629,4.263c0,1.213,0.465,1.817,1.398,1.817c0.559,0,1.07-0.115,1.538-0.349
			c0.465-0.232,0.979-0.676,1.538-1.328c0.559-0.651,1.234-1.468,2.027-2.447c0.791-0.979,1.839-2.258,3.146-3.844
			c0.371-0.465,0.93-1.21,1.677-2.237c0.745-1.024,1.538-2.073,2.376-3.146c0.839-1.07,1.584-2.003,2.237-2.796
			c0.651-0.791,1.119-1.188,1.398-1.188C46.497,67.475,46.636,67.522,46.73,67.614z M38.342,43.01c-1.026,0-1.935-0.396-2.726-1.188
			c-0.793-0.791-1.188-1.699-1.188-2.726c0-1.118,0.395-2.049,1.188-2.796c0.791-0.745,1.7-1.118,2.726-1.118
			c1.119,0,2.049,0.374,2.796,1.118c0.745,0.747,1.119,1.678,1.119,2.796c0,1.027-0.374,1.936-1.119,2.726
			C40.391,42.615,39.461,43.01,38.342,43.01z"/>
		<path fill="#808080" d="M51.483,59.646c0.651-1.21,1.514-2.493,2.586-3.845c1.07-1.35,2.307-2.586,3.705-3.705
			c1.398-1.118,2.912-2.027,4.543-2.726c1.629-0.699,3.331-1.049,5.103-1.049c2.143,0,3.215,0.374,3.215,1.119
			c0,0.653-0.258,1.748-0.769,3.285c-0.513,1.538-1.328,4.032-2.446,7.479c1.024-1.49,2.188-2.958,3.495-4.404
			c1.304-1.444,2.748-2.726,4.333-3.844c1.583-1.118,3.285-2.003,5.103-2.656c1.817-0.651,3.705-0.979,5.662-0.979
			c1.024,0,1.863,0.048,2.516,0.14c0.651,0.094,0.979,0.513,0.979,1.258c0,0.188-0.349,1.282-1.048,3.285
			c-0.699,2.005-1.562,4.474-2.586,7.409c-1.027,2.936-2.121,6.151-3.285,9.646c-1.167,3.495-2.215,6.92-3.146,10.274
			c-0.28,0.934-0.397,1.748-0.35,2.447c0.046,0.698,0.721,1.048,2.027,1.048c0.372,0,0.861-0.255,1.468-0.769
			c0.605-0.511,1.258-1.141,1.957-1.888c0.699-0.744,1.398-1.537,2.097-2.376c0.699-0.839,1.28-1.538,1.748-2.097
			c0.372-0.465,0.931-1.258,1.678-2.376c0.745-1.118,1.514-2.237,2.307-3.355c0.791-1.118,1.514-2.097,2.167-2.936
			c0.651-0.839,1.119-1.258,1.398-1.258c0.651,0,0.979,0.328,0.979,0.979c-0.653,0.839-1.631,2.261-2.936,4.264
			c-1.306,2.005-2.774,4.032-4.403,6.081c-1.632,2.051-3.264,3.845-4.893,5.382c-1.632,1.538-3.146,2.307-4.543,2.307
			c-1.118,0-2.121-0.373-3.005-1.118c-0.887-0.744-1.328-1.863-1.328-3.354c0-2.143,0.326-4.845,0.979-8.108
			c0.651-3.261,1.42-6.5,2.307-9.716c0.885-3.215,1.77-6.057,2.656-8.527c0.885-2.468,1.514-4.03,1.887-4.683
			c-4.474,0.838-8.226,2.936-11.253,6.291c-3.03,3.355-5.522,7.083-7.479,11.184c-0.747,1.492-1.376,3.215-1.887,5.172
			c-0.514,1.957-1.027,3.893-1.538,5.802c-0.513,1.911-1.026,3.588-1.538,5.033c-0.513,1.445-1.097,2.353-1.748,2.726
			c-0.559,0.371-1.002,0.466-1.328,0.28c-0.328-0.188-0.559-0.468-0.699-0.839c-0.14-0.374-0.21-0.77-0.21-1.188
			c0-0.42,0-0.77,0-1.049c0-3.727,0.419-7.479,1.258-11.253s1.77-7.245,2.796-10.415c1.024-3.167,2.003-5.823,2.936-7.968
			c0.931-2.143,1.538-3.447,1.817-3.915c-1.957,0.468-3.774,1.352-5.452,2.656c-1.678,1.306-3.194,2.844-4.543,4.613
			c-1.352,1.771-2.564,3.705-3.635,5.801c-1.072,2.097-2.027,4.124-2.866,6.081c-0.374,0.933-0.747,2.075-1.119,3.425
			c-0.374,1.352-0.747,2.726-1.118,4.124c-0.374,1.398-0.723,2.726-1.048,3.984c-0.328,1.258-0.581,2.307-0.769,3.145
			c-0.28,1.678-1.07,2.517-2.376,2.517c-0.931,0-1.49-0.419-1.678-1.258c-0.186-0.839-0.279-1.584-0.279-2.237
			c0-3.167,0.304-6.126,0.909-8.876c0.607-2.748,1.328-5.802,2.167-9.157c0.933-3.82,1.817-6.872,2.656-9.157
			c0.839-2.282,1.608-4.006,2.307-5.172c0.699-1.164,1.328-1.909,1.887-2.237c0.559-0.325,1.07-0.489,1.538-0.489
			c2.237,0,3.355,0.419,3.355,1.258c0,0.559-0.258,1.608-0.769,3.146C53.417,53.844,52.602,56.291,51.483,59.646z"/>
		<path fill="#808080" d="M118.304,86.906c-1.307-0.095-2.355-0.42-3.146-0.979c-0.793-0.56-1.352-1.259-1.678-2.098
			c-0.328-0.839-0.513-1.769-0.559-2.796c-0.048-1.023-0.024-2.097,0.07-3.215c-1.026,1.677-2.285,3.354-3.774,5.032
			c-1.492,1.678-3.309,2.748-5.452,3.216c-2.424,0.465-4.312,0.186-5.662-0.839c-1.352-1.024-2.353-2.398-3.005-4.124
			c-0.651-1.724-1.049-3.587-1.188-5.592c-0.14-2.003-0.116-3.75,0.07-5.242c0.374-3.076,1.119-5.987,2.237-8.737
			c1.118-2.748,2.888-5.382,5.312-7.898c1.958-1.957,3.984-3.377,6.082-4.264c2.097-0.885,4.03-1.374,5.801-1.468
			c0.839,0,1.839,0.07,3.005,0.21c1.165,0.14,2.237,0.374,3.215,0.699c0.979,0.328,1.77,0.793,2.376,1.398
			c0.605,0.607,0.721,1.376,0.35,2.307c-0.188,0.468-0.443,0.769-0.769,0.909c-0.328,0.14-1.049,0.21-2.167,0.21
			c-0.559,0-1.258-0.07-2.097-0.21c-0.838-0.14-1.817-0.116-2.936,0.07c-1.118,0.188-2.376,0.607-3.774,1.258
			c-1.398,0.653-2.936,1.771-4.613,3.355c-1.398,1.306-2.656,2.844-3.774,4.613c-1.118,1.771-2.051,3.635-2.796,5.592
			c-0.747,1.958-1.258,3.938-1.538,5.941c-0.28,2.005-0.234,3.893,0.14,5.662c0.371,1.865,1.118,3.124,2.237,3.774
			c1.118,0.653,2.328,0.747,3.635,0.279c2.328-0.65,4.194-1.908,5.592-3.773c1.398-1.864,2.608-3.96,3.634-6.292
			c0.092-1.118,0.28-2.726,0.56-4.823c0.279-2.097,0.699-4.17,1.258-6.221c0.559-2.049,1.28-3.82,2.167-5.312
			c0.885-1.49,2.027-2.188,3.425-2.097c0.839,0,1.468,0.048,1.887,0.14c0.419,0.094,0.629,0.489,0.629,1.188
			c0,0.699-0.21,1.911-0.629,3.634c-0.419,1.726-1.096,4.218-2.027,7.479c-0.28,0.839-0.677,2.191-1.188,4.054
			c-0.513,1.865-0.933,3.753-1.258,5.662c-0.328,1.912-0.489,3.589-0.489,5.033c0,1.445,0.419,2.166,1.258,2.166
			c1.49,0.374,2.888-0.046,4.194-1.258c1.304-1.21,2.377-2.468,3.215-3.774c0.465-0.651,1-1.629,1.608-2.936
			c0.605-1.304,1.234-2.678,1.887-4.124c0.651-1.444,1.234-2.866,1.748-4.264c0.511-1.398,0.909-2.468,1.188-3.215
			c0.186-0.559,0.511-0.699,0.979-0.419c0.559,0.188,0.745,0.513,0.559,0.979c-0.279,0.747-0.699,1.817-1.258,3.215
			s-1.167,2.844-1.817,4.333c-0.653,1.492-1.306,2.936-1.957,4.333c-0.653,1.398-1.212,2.425-1.678,3.076
			c-0.559,0.747-1.167,1.492-1.817,2.236c-0.653,0.747-1.376,1.423-2.167,2.027c-0.792,0.605-1.607,1.095-2.446,1.468
			C120.121,86.857,119.234,86.998,118.304,86.906z"/>
		<path fill="#808080" d="M143.184,50c0.559,0.467,1.28,1.236,2.167,2.307c0.884,1.072,1.769,2.424,2.656,4.054
			c0.885,1.631,1.654,3.495,2.307,5.592c0.651,2.097,0.979,4.357,0.979,6.78c0,2.145-0.279,4.242-0.839,6.291
			c-0.559,2.051-1.376,3.892-2.446,5.521c-1.072,1.632-2.331,2.96-3.774,3.984c-1.446,1.024-3.054,1.538-4.823,1.538
			c-1.678,0-3.285-0.328-4.823-0.979c-1.538-0.651-2.888-1.514-4.054-2.587c-1.165-1.07-2.119-2.328-2.866-3.774
			c-0.745-1.444-1.164-3.006-1.258-4.683v-0.14c0-1.118,0.188-2.119,0.559-3.005c0.374-0.885,1.072-1.328,2.097-1.328
			c0.374,0,0.839,0.094,1.398,0.28c0.933-1.678,1.866-3.471,2.796-5.382c0.93-1.909,1.793-3.75,2.586-5.522
			c0.791-1.769,1.514-3.425,2.167-4.962c0.651-1.538,1.118-2.772,1.398-3.705c-0.468,0-1.097-0.511-1.887-1.538
			c-0.793-1.024-1.188-2.049-1.188-3.075c0-1.21,0.441-2.189,1.328-2.936c0.885-0.745,1.793-1.118,2.726-1.118
			c1.118,0,1.979,0.374,2.586,1.118c0.605,0.747,0.909,1.817,0.909,3.215c0,0.747-0.118,1.468-0.349,2.167
			C143.3,48.812,143.184,49.441,143.184,50z M127.946,74.045c0.188-0.372,0.419-0.791,0.699-1.258
			c0.279-0.465,0.607-0.979,0.979-1.538c-0.092-0.092-0.28-0.14-0.56-0.14c-0.465,0-0.769,0.328-0.908,0.979
			c-0.14,0.653-0.21,1.258-0.21,1.817V74.045z M143.604,79.497c0.651-1.21,1.118-2.562,1.398-4.054
			c0.279-1.49,0.419-3.028,0.419-4.613c0-1.49-0.164-2.958-0.489-4.404c-0.328-1.444-0.723-2.817-1.188-4.124
			c-0.467-1.304-0.933-2.492-1.398-3.564c-0.467-1.07-0.839-2.027-1.118-2.866c-0.468,1.212-1.282,2.774-2.447,4.683
			c-1.166,1.911-2.4,3.868-3.705,5.871c-1.306,2.005-2.586,3.869-3.844,5.592c-1.258,1.726-2.258,2.96-3.005,3.705
			c0.467,2.145,1.562,4.008,3.285,5.592c1.723,1.586,3.656,2.516,5.801,2.796c1.304,0,2.492-0.326,3.565-0.979
			C141.948,82.48,142.856,81.269,143.604,79.497z M139.13,46.924c0.186,0.188,0.35,0.35,0.489,0.489
			c0.14,0.14,0.302,0.304,0.489,0.489c0.186-0.838,0.302-1.607,0.35-2.307c0.046-0.699,0.07-1,0.07-0.908
			c-1.118,0-1.677,0.419-1.677,1.258C138.851,46.226,138.942,46.553,139.13,46.924z"/>
	</g>
</g>
</svg>
