<?xml version="1.0" encoding="utf-8"?>
<!-- Generator: Adobe Illustrator 16.0.0, SVG Export Plug-In . SVG Version: 6.00 Build 0)  -->
<!DOCTYPE svg PUBLIC "-//W3C//DTD SVG 1.1//EN" "http://www.w3.org/Graphics/SVG/1.1/DTD/svg11.dtd">
<svg version="1.1" id="Layer_1" xmlns="http://www.w3.org/2000/svg" xmlns:xlink="http://www.w3.org/1999/xlink" x="0px" y="0px"
	 width="419px" height="177.629px" viewBox="0 0 419 177.629" enable-background="new 0 0 419 177.629" xml:space="preserve">
<g>
	<path fill="#FF7BAC" stroke="#FF7BAC" stroke-width="0.216" stroke-miterlimit="22.9256" d="M52.229,27.808H31.068v48.26h21.162
		c9.045,0,15.89-2.057,20.526-6.163c4.636-4.126,6.943-10.195,6.943-18.246c0-7.696-2.344-13.61-7.072-17.701
		C67.93,29.864,61.108,27.808,52.229,27.808L52.229,27.808z M18.767,83.793V20.506h34.491c12.631,0,22.311,2.644,29.004,7.911
		c6.693,5.259,10.059,12.868,10.059,22.813c0,10.285-3.486,18.276-10.437,23.997c-6.943,5.704-16.646,8.565-29.11,8.565H18.767z"/>
	
		<polygon fill-rule="evenodd" clip-rule="evenodd" fill="#FF7BAC" stroke="#FF7BAC" stroke-width="0.216" stroke-miterlimit="22.9256" points="
		101.238,19.983 109.784,19.983 149.929,19.983 149.929,26.923 109.784,26.923 109.784,48.802 148.394,48.802 148.394,55.443 
		109.784,55.443 109.784,77.172 149.929,77.172 149.929,83.507 109.784,83.507 101.238,83.507 101.238,77.172 101.238,55.443 
		101.238,48.802 101.238,26.923 	"/>
	
		<polygon fill-rule="evenodd" clip-rule="evenodd" fill="#FF7BAC" stroke="#FF7BAC" stroke-width="0.216" stroke-miterlimit="22.9256" points="
		201.07,76.956 239.324,76.956 239.324,83.294 201.07,83.294 192.524,83.294 192.524,76.956 192.524,19.769 201.07,19.769 	"/>
	
		<path fill-rule="evenodd" clip-rule="evenodd" fill="#FF7BAC" stroke="#FF7BAC" stroke-width="0.216" stroke-miterlimit="22.9256" d="
		M253.808,57.939h35.622l-18.016-31.281L253.808,57.939L253.808,57.939z M293.082,64.272h-42.836l-10.922,19.426l-8.334-0.311
		l0.771-4.57c0,0,35.645-59.027,34.865-59.027c-0.771,0,9.727,0.151,9.727,0.151l38.405,63.446l-10.482,0.311L293.082,64.272z"/>
	
		<polygon fill-rule="evenodd" clip-rule="evenodd" fill="#FF7BAC" stroke="#FF7BAC" stroke-width="0.216" stroke-miterlimit="22.9256" points="
		31.839,121.56 64.867,121.56 64.867,136.093 31.839,136.093 31.839,171.169 13.801,171.169 13.801,136.093 13.801,121.56 
		13.801,103.025 13.801,89.492 31.839,89.492 65.117,89.492 65.117,103.025 31.839,103.025 	"/>
	
		<polygon fill-rule="evenodd" clip-rule="evenodd" fill="#FF7BAC" stroke="#FF7BAC" stroke-width="0.216" stroke-miterlimit="22.9256" points="
		142.018,89.492 160.056,89.492 193.349,89.492 193.349,103.025 160.056,103.025 160.056,121.56 193.092,121.56 193.092,136.093 
		160.056,136.093 160.056,155.638 193.688,155.638 193.688,171.169 160.056,171.169 142.018,171.169 142.018,155.638 
		142.018,136.093 142.018,121.56 142.018,103.025 	"/>
	
		<polygon fill-rule="evenodd" clip-rule="evenodd" fill="#FF7BAC" stroke="#FF7BAC" stroke-width="0.216" stroke-miterlimit="22.9256" points="
		298.68,89.492 316.725,89.492 334.943,89.492 334.943,103.025 316.725,103.025 316.725,171.169 298.68,171.169 298.68,103.025 
		280.641,103.025 280.641,89.492 	"/>
	
		<polygon fill-rule="evenodd" clip-rule="evenodd" fill="#FF7BAC" stroke="#FF7BAC" stroke-width="0.216" stroke-miterlimit="22.9256" points="
		337.766,89.741 355.803,89.741 389.089,89.741 389.089,103.279 355.803,103.279 355.803,121.81 388.839,121.81 388.839,136.341 
		355.803,136.341 355.803,155.881 389.429,155.881 389.429,171.407 355.803,171.407 337.766,171.407 337.766,155.881 
		337.766,136.341 337.766,121.81 337.766,103.279 	"/>
	
		<path fill-rule="evenodd" clip-rule="evenodd" fill="#FF7BAC" stroke="#FF7BAC" stroke-width="0.216" stroke-miterlimit="22.9256" d="
		M203.09,89.492h17.266l40.152,51.856l-0.506-51.607l17.78-0.502l0.507,81.677h-16.768l-40.145-53.872l-0.257,53.872h-18.544
		C202.576,170.916,202.833,89.239,203.09,89.492z"/>
	<path fill="#FF7BAC" stroke="#FF7BAC" stroke-width="0.216" stroke-miterlimit="22.9256" d="M113.906,89.239v56.118h-0.007
		l0.007,0.252c0,5.771-5.294,10.438-11.813,10.438c-6.527,0-11.821-4.666-11.821-10.438l0.008-0.252h-0.008V89.239H71.802v54.491
		c-0.053,0.617-0.075,1.248-0.075,1.879c0,0.636,0.022,1.256,0.075,1.876v0.311h0.023c1.255,13.769,14.332,24.621,30.267,24.621
		c15.928,0,28.997-10.853,30.26-24.621l1.369-58.557H113.906z"/>
	<g>
		
			<path fill-rule="evenodd" clip-rule="evenodd" fill="#FF7BAC" stroke="#FF7BAC" stroke-width="0.216" stroke-miterlimit="22.9256" d="
			M398.02,9.513c1.967,0,3.888,0.499,5.763,1.497c1.877,0.999,3.336,2.42,4.388,4.277c1.044,1.854,1.573,3.793,1.573,5.805
			c0,1.997-0.514,3.91-1.551,5.748c-1.029,1.846-2.48,3.271-4.333,4.288c-1.868,1.021-3.812,1.523-5.84,1.523
			c-2.034,0-3.984-0.502-5.847-1.523c-1.859-1.018-3.304-2.442-4.348-4.288c-1.036-1.838-1.551-3.751-1.551-5.748
			c0-2.012,0.529-3.951,1.574-5.805c1.05-1.857,2.518-3.278,4.393-4.277C394.118,10.012,396.046,9.513,398.02,9.513L398.02,9.513z
			 M398.02,11.434c-1.655,0-3.259,0.416-4.824,1.248c-1.551,0.832-2.776,2.026-3.653,3.569c-0.885,1.551-1.324,3.161-1.324,4.841
			c0,1.664,0.439,3.261,1.301,4.787c0.863,1.528,2.08,2.724,3.632,3.577c1.557,0.851,3.176,1.278,4.869,1.278
			c1.68,0,3.307-0.428,4.864-1.278c1.55-0.854,2.76-2.049,3.622-3.577c0.854-1.526,1.285-3.123,1.285-4.787
			c0-1.68-0.431-3.29-1.309-4.841c-0.877-1.543-2.094-2.737-3.667-3.569C401.258,11.85,399.654,11.434,398.02,11.434L398.02,11.434z
			 M392.869,27.482h2.035v-5.286h1.194c0.719,0,1.264,0.143,1.633,0.431c0.538,0.386,1.25,1.354,2.135,2.894l1.119,1.962h2.487
			l-1.543-2.435c-0.733-1.158-1.353-1.975-1.867-2.47c-0.265-0.254-0.62-0.477-1.066-0.658c1.089-0.084,1.966-0.461,2.616-1.138
			c0.657-0.674,0.991-1.464,0.991-2.375c0-0.644-0.197-1.248-0.591-1.831c-0.4-0.567-0.922-0.968-1.58-1.202
			c-0.666-0.227-1.739-0.34-3.229-0.34h-4.334V27.482L392.869,27.482z M394.904,20.479h2.473c1.181,0,1.989-0.175,2.413-0.522
			c0.432-0.347,0.651-0.806,0.651-1.38c0-0.37-0.106-0.7-0.312-0.987c-0.211-0.295-0.491-0.511-0.861-0.653
			c-0.371-0.145-1.052-0.216-2.051-0.216h-2.313V20.479z"/>
	</g>
	
		<path fill-rule="evenodd" clip-rule="evenodd" fill="#FF7BAC" stroke="#FF7BAC" stroke-width="0.216" stroke-miterlimit="22.9256" d="
		M311.514,47.6c0,0,7.389-5.096,12.842-4.923c5.461,0.174,10.732,4.749,13.546,10.731c2.821,5.982,6.155,15.304,6.155,20.412
		c0,5.098,0.538,9.496,2.293,10.552c1.754,1.059,6.338,1.233,6.511-2.283c0.175-3.518-2.283-19.884-4.408-25.337
		c-2.103-5.454-7.911-18.121-16.004-20.413c-8.093-2.284-18.121-0.703-23.045,2.466c-4.923,3.169-7.041,4.575-6.329,7.74
		c0.695,3.166,2.979,3.347,5.09,2.991C310.281,49.184,311.514,47.6,311.514,47.6z"/>
	
		<path fill-rule="evenodd" clip-rule="evenodd" fill="#FF7BAC" stroke="#FF7BAC" stroke-width="0.216" stroke-miterlimit="22.9256" d="
		M358.67,49.892c0,0-3.699,13.723-3.525,20.583c0.175,6.863,1.937,5.457,3.525,5.457c1.572,0,3.864-1.406,4.038-4.402
		c0.181-2.991,1.415-14.951,4.576-21.463c3.168-6.513,5.808-9.499,9.847-8.623c4.046,0.878,8.803,6.513,10.565,8.268
		c1.763,1.762,4.568,4.228,6.853,3.168c2.292-1.052,2.292-3.873,0-7.214c-2.284-3.344-12.306-12.14-16.534-12.14
		c-4.227,0-10.73,0.175-13.718,5.279c-2.995,5.104-3.873,5.453-4.221,7.567C359.721,48.481,358.67,49.892,358.67,49.892z"/>
	
		<path fill-rule="evenodd" clip-rule="evenodd" fill="#FF7BAC" stroke="#FF7BAC" stroke-width="0.216" stroke-miterlimit="22.9256" d="
		M353.209,58.34l9.325-50.321c0,0-1.232-5.809-4.749-4.928c-3.525,0.882-3.699,2.992-4.221,6.505
		c-0.529,3.524-3.351,21.116-3.351,21.116l-3.864-10.729c0,0-3.873-4.224-6.156-0.881c-2.292,3.34-1.052,4.575,0.348,9.147
		C341.947,32.822,353.209,58.34,353.209,58.34z"/>
</g>
</svg>
